<svg width="59" height="54" viewBox="0 0 59 54" fill="none" xmlns="http://www.w3.org/2000/svg">
<path d="M55.2575 1L32.9501 17.5075L37.1094 7.77623L55.2575 1Z" fill="#E17726" stroke="#E17726" stroke-width="0.18643" stroke-linecap="round" stroke-linejoin="round"/>
<path d="M3.81802 1L25.9217 17.6434L21.9662 7.79321L3.81802 1ZM47.2276 39.2628L41.2857 48.3317L54.0013 51.8302L57.6343 39.4666L47.2276 39.2628ZM1.45825 39.4666L5.0743 51.8302L17.7559 48.3317L11.848 39.2628L1.45825 39.4666Z" fill="#E27625" stroke="#E27625" stroke-width="0.18643" stroke-linecap="round" stroke-linejoin="round"/>
<path d="M17.077 23.9441L13.5458 29.2767L26.1086 29.8542L25.7012 16.3187L17.077 23.9611V23.9441ZM41.9988 23.9611L33.2388 16.1489L32.9502 29.8542L45.513 29.2767L41.9988 23.9611ZM17.7561 48.3317L25.3786 44.6634L18.8256 39.5685L17.7561 48.3317ZM33.7142 44.6464L41.2858 48.3317L40.2672 39.5515L33.7142 44.6464Z" fill="#E27625" stroke="#E27625" stroke-width="0.18643" stroke-linecap="round" stroke-linejoin="round"/>
<path d="M41.2858 48.3317L33.7141 44.6634L34.3253 49.5884L34.2574 51.6774L41.2858 48.3317ZM17.756 48.3317L24.8183 51.6774L24.7674 49.5884L25.3785 44.6634L17.756 48.3317Z" fill="#D5BFB2" stroke="#D5BFB2" stroke-width="0.18643" stroke-linecap="round" stroke-linejoin="round"/>
<path d="M24.9371 36.2907L18.6557 34.4566L23.1036 32.4186L24.9541 36.2907H24.9371ZM34.1215 36.2907L35.989 32.4016L40.4538 34.4396L34.1215 36.3077V36.2907Z" fill="#233447" stroke="#233447" stroke-width="0.18643" stroke-linecap="round" stroke-linejoin="round"/>
<path d="M17.7561 48.3317L18.8595 39.2628L11.8481 39.4666L17.7561 48.3317ZM40.2163 39.2628L41.2858 48.3317L47.2277 39.4666L40.2163 39.2628ZM45.53 29.2768L32.9672 29.8542L34.1216 36.3077L35.9891 32.4016L40.454 34.4396L45.53 29.2768ZM18.6558 34.4566L23.1037 32.4186L24.9542 36.2908L26.1256 29.8372L13.5628 29.2768L18.6558 34.4566Z" fill="#CC6228" stroke="#CC6228" stroke-width="0.18643" stroke-linecap="round" stroke-linejoin="round"/>
<path d="M13.5629 29.2768L18.8257 39.5515L18.6559 34.4566L13.5629 29.2768ZM40.4541 34.4566L40.2503 39.5515L45.5131 29.2768L40.4541 34.4566ZM26.1257 29.8542L24.9373 36.3077L26.4313 43.9161L26.7708 33.8792L26.1257 29.8542ZM32.9504 29.8542L32.3392 33.8622L32.6448 43.9161L34.1217 36.2908L32.9504 29.8372V29.8542Z" fill="#E27525" stroke="#E27525" stroke-width="0.18643" stroke-linecap="round" stroke-linejoin="round"/>
<path d="M34.1216 36.2908L32.6447 43.9161L33.7142 44.6634L40.2502 39.5685L40.454 34.4566L34.1216 36.2908ZM18.6558 34.4566L18.8256 39.5515L25.3786 44.6464L26.4312 43.9161L24.9542 36.2908L18.6389 34.4566H18.6558Z" fill="#F5841F" stroke="#F5841F" stroke-width="0.18643" stroke-linecap="round" stroke-linejoin="round"/>
<path d="M34.2744 51.6774L34.3253 49.5885L33.7481 49.1129H25.3276L24.7674 49.5885L24.8183 51.6774L17.756 48.3317L20.2346 50.3697L25.2427 53.8172H33.816L38.8411 50.3527L41.2858 48.3317L34.2574 51.6774H34.2744Z" fill="#C0AC9D" stroke="#C0AC9D" stroke-width="0.18643" stroke-linecap="round" stroke-linejoin="round"/>
<path d="M33.7142 44.6464L32.6447 43.9161H26.4312L25.3786 44.6634L24.7675 49.5885L25.3277 49.1129H33.7482L34.3254 49.5885L33.7142 44.6634V44.6464Z" fill="white" stroke="white" stroke-width="0.18643" stroke-linecap="round" stroke-linejoin="round"/>
<path d="M56.2084 18.5774L58.0758 9.49152L55.2577 1L33.6972 16.964L41.9988 23.9441L53.7128 27.3577L56.2933 24.3517L55.1728 23.5365L56.9553 21.9061L55.5972 20.8532L57.3798 19.4945L56.1914 18.5774H56.2084ZM1 9.47453L2.9014 18.5774L1.67907 19.4775L3.49558 20.8362L2.13744 21.9061L3.90302 23.5365L2.78256 24.3517L5.36302 27.3577L17.077 23.9611L25.3786 16.9471L3.81814 1L1 9.47453Z" fill="#763E1A" stroke="#763E1A" stroke-width="0.18643" stroke-linecap="round" stroke-linejoin="round"/>
<path d="M53.7127 27.3577L41.9987 23.9611L45.5299 29.2768L40.2671 39.5515L47.2276 39.4666H57.6343L53.7127 27.3577ZM17.0769 23.9441L5.3629 27.3577L1.45825 39.4666H11.865L18.8255 39.5515L13.5627 29.2768L17.0938 23.9441H17.0769ZM32.9501 29.8542L33.7141 16.9471L37.1094 7.77623H21.9662L25.3615 16.9471L26.1255 29.8542L26.4141 33.8961V43.9161H32.6445L32.6785 33.8961L32.9501 29.8542Z" fill="#F5841F" stroke="#F5841F" stroke-width="0.18643" stroke-linecap="round" stroke-linejoin="round"/>
</svg>
