<svg width="107" height="94" viewBox="0 0 107 94" fill="none" xmlns="http://www.w3.org/2000/svg">
<g filter="url(#filter0_d_10_1258)">
<path d="M60.0769 63.9798C60.0769 58.0076 62.1731 52.9216 66.3654 48.7218C70.5577 44.5605 75.6154 42.4798 81.5385 42.4798C87.4615 42.4798 92.5192 44.5798 96.7115 48.7796C100.904 52.9794 103 58.0461 103 63.9798C103 69.9135 100.904 74.9803 96.7115 79.1801C92.5192 83.3799 87.4615 85.4798 81.5385 85.4798C75.6154 85.4798 70.5577 83.3799 66.3654 79.1801C62.1731 74.9803 60.0769 69.9135 60.0769 63.9798ZM10.2885 37.1048C6.09615 32.905 4 27.8383 4 21.9046C4 15.9709 6.09615 10.9041 10.2885 6.7043C14.4808 2.50448 19.5385 0.40457 25.4615 0.40457C31.3846 0.40457 36.4423 2.50448 40.6346 6.7043C44.8269 10.9041 46.9231 15.9709 46.9231 21.9046C46.9231 27.8383 44.8269 32.905 40.6346 37.1048C36.4808 41.3047 31.4231 43.4046 25.4615 43.4046C19.5385 43.4046 14.4808 41.3047 10.2885 37.1048ZM34.5192 86H25.5769L72.3654 0H81.1346L34.5192 86ZM75.0769 70.453C76.8462 72.2639 79 73.1694 81.5385 73.1694C84.0769 73.1694 86.2308 72.2832 88 70.5108C89.8077 68.6998 90.7115 66.5229 90.7115 63.9798C90.7115 61.4368 89.8077 59.2791 88 57.5067C86.2308 55.6958 84.0769 54.7903 81.5385 54.7903C79 54.7903 76.8269 55.6958 75.0192 57.5067C73.25 59.2791 72.3654 61.4368 72.3654 63.9798C72.3654 66.5229 73.2692 68.6806 75.0769 70.453ZM19 28.3777C20.7692 30.1886 22.9231 31.0941 25.4615 31.0941C28 31.0941 30.1538 30.2079 31.9231 28.4355C33.7308 26.6246 34.6346 24.4476 34.6346 21.9046C34.6346 19.3616 33.7308 17.2039 31.9231 15.4315C30.1538 13.6205 28 12.7151 25.4615 12.7151C22.9231 12.7151 20.75 13.6205 18.9423 15.4315C17.1731 17.2039 16.2885 19.3616 16.2885 21.9046C16.2885 24.4476 17.1923 26.6053 19 28.3777Z" fill="#5AACA7"/>
</g>
<defs>
<filter id="filter0_d_10_1258" x="0.00730038" y="0" width="106.985" height="93.9854" filterUnits="userSpaceOnUse" color-interpolation-filters="sRGB">
<feFlood flood-opacity="0" result="BackgroundImageFix"/>
<feColorMatrix in="SourceAlpha" type="matrix" values="0 0 0 0 0 0 0 0 0 0 0 0 0 0 0 0 0 0 127 0" result="hardAlpha"/>
<feOffset dy="3.9927"/>
<feGaussianBlur stdDeviation="1.99635"/>
<feComposite in2="hardAlpha" operator="out"/>
<feColorMatrix type="matrix" values="0 0 0 0 0 0 0 0 0 0 0 0 0 0 0 0 0 0 0.25 0"/>
<feBlend mode="normal" in2="BackgroundImageFix" result="effect1_dropShadow_10_1258"/>
<feBlend mode="normal" in="SourceGraphic" in2="effect1_dropShadow_10_1258" result="shape"/>
</filter>
</defs>
</svg>
