<?xml version="1.0" encoding="UTF-8"?><svg xmlns="http://www.w3.org/2000/svg" viewBox="0 0 34.23 54.65"><g id="a"/><g id="b"><g id="c"><g><path d="M0,30.82l16.14,22.46,.98,1.37,.98-1.37,16.13-22.46-17.11,9.41L0,30.82Zm16.01,18.7l-8.93-12.42,8.93,4.91v7.5Zm2.22-7.5l8.92-4.91-8.92,12.42v-7.5Z"/><path d="M1.14,27.85l15,8.26,.98,.54,.98-.54,15-8.26,1.13-.63-1.02-1.63L18.1,1.56l-.98-1.56-.98,1.56L1.01,25.61h0l-1.01,1.62H.01l1.13,.63Zm14.87,5.8L3.5,26.77l12.51-5.76v12.65Zm2.22,0v-12.79l12.53,5.89-12.53,6.9Zm0-27.97l11.48,18.26-11.48-5.39V5.69Zm-2.22,0v13.01l-11.51,5.3L16.01,5.69Z"/></g></g></g></svg>