<svg width="303" height="167" viewBox="0 0 303 167" fill="none" xmlns="http://www.w3.org/2000/svg">
<path d="M60.6885 10.3675V5.08139H70.4385V3.20188H58.5741V20H70.7204V18.1205H60.6885V12.247H69.3108V10.3675H60.6885ZM84.9676 8.27656H87.0821C86.4947 5.08139 84.2628 2.87297 80.0104 2.87297C75.3586 2.87297 72.2104 6.53801 72.2104 11.5892C72.2104 16.6639 74.8887 20.3289 79.7755 20.3289C82.3598 20.3289 83.9339 19.3892 85.2026 17.6271H85.2495L85.9544 20H87.364V11.2603H79.7755V13.1398H85.2495C85.2495 16.288 82.7827 18.4494 79.7755 18.4494C75.5466 18.4494 74.3249 14.7609 74.3249 11.5892C74.3249 8.44101 76.0165 4.75248 80.0104 4.75248C82.5478 4.75248 84.4742 5.88018 84.9676 8.27656ZM97.8702 20.3289C102.804 20.3289 106.093 16.6404 106.093 11.5892C106.093 6.53801 102.804 2.87297 97.8702 2.87297C92.9364 2.87297 89.6473 6.53801 89.6473 11.5892C89.6473 16.6404 92.9364 20.3289 97.8702 20.3289ZM97.8702 18.4494C93.6413 18.4494 91.7618 15.2072 91.7618 11.5892C91.7618 7.97114 93.6413 4.75248 97.8702 4.75248C102.099 4.75248 103.979 7.97114 103.979 11.5892C103.979 15.2072 102.099 18.4494 97.8702 18.4494ZM107.503 3.20188V5.08139H117.276V5.12838L107.033 18.1205V20H120.095V18.1205H109.617V18.0735L119.86 5.08139V3.20188H107.503ZM124.631 10.3675V5.08139H134.381V3.20188H122.517V20H134.663V18.1205H124.631V12.247H133.254V10.3675H124.631ZM141.76 14.197C144.885 14.197 147.352 11.7771 147.352 8.5115C147.352 5.24585 144.885 2.82598 141.76 2.82598C138.635 2.82598 136.168 5.24585 136.168 8.5115C136.168 11.7771 138.635 14.197 141.76 14.197ZM141.76 13.2573C139.176 13.2573 137.108 11.2603 137.108 8.5115C137.108 5.78621 139.176 3.76573 141.76 3.76573C144.344 3.76573 146.412 5.78621 146.412 8.5115C146.412 11.2603 144.344 13.2573 141.76 13.2573ZM139.693 11.4717H140.679V9.02836H141.713C143.475 9.02836 142.888 11.2133 143.146 11.4717H144.203V11.4247C143.898 11.3308 144.391 8.95788 143.052 8.69945V8.67595C143.71 8.5115 144.133 8.01812 144.133 7.14885C144.133 6.09163 143.334 5.4338 142.136 5.4338H139.693V11.4717ZM140.679 6.35006H141.713C142.347 6.35006 143.123 6.30307 143.123 7.24283C143.123 8.15909 142.347 8.13559 141.713 8.13559H140.679V6.35006ZM154.247 20H156.362V6.2091H156.409L164.796 20H167.38V3.20188H165.266V17.0398H165.219L156.832 3.20188H154.247V20ZM172.652 10.532V5.08139H181.932V3.20188H170.537V20H172.652V12.4115H180.146V10.532H172.652ZM188.654 20H190.768V5.08139H196.36V3.20188H183.062V5.08139H188.654V20ZM215.332 8.74643H217.447C217.047 5.55127 214.416 2.87297 210.304 2.87297C205.7 2.87297 202.528 6.53801 202.528 11.5892C202.528 16.6639 205.7 20.3289 210.304 20.3289C214.439 20.3289 217.071 17.6506 217.447 13.9386H215.332C215.191 16.053 213.829 18.4494 210.304 18.4494C206.311 18.4494 204.642 14.9958 204.642 11.5892C204.642 8.20608 206.311 4.75248 210.304 4.75248C213.805 4.75248 215.027 7.14885 215.332 8.74643ZM224.729 20.3289C221.064 20.3289 218.856 17.7446 218.856 14.0091C218.856 10.2735 221.064 7.68921 224.729 7.68921C228.371 7.68921 230.579 10.2735 230.579 14.0091C230.579 17.7446 228.371 20.3289 224.729 20.3289ZM224.729 18.6843C227.408 18.6843 228.7 16.5699 228.7 14.0091C228.7 11.4482 227.408 9.33378 224.729 9.33378C222.028 9.33378 220.735 11.4482 220.735 14.0091C220.735 16.5699 222.028 18.6843 224.729 18.6843ZM232.548 3.20188V20H234.427V3.20188H232.548ZM236.93 3.20188V20H238.809V3.20188H236.93ZM246.569 18.6843C243.961 18.6843 242.669 16.6639 242.669 14.5024H252.137C252.137 10.25 250.305 7.68921 246.546 7.68921C243.045 7.68921 240.79 10.0151 240.79 14.0091C240.79 17.7681 242.998 20.3289 246.64 20.3289C249.623 20.3289 251.338 18.5434 251.949 16.3115H250.07C249.858 17.1337 248.965 18.6843 246.569 18.6843ZM246.546 9.33378C248.801 9.33378 250.258 10.9314 250.258 12.8579H242.669C242.669 10.9314 244.29 9.33378 246.546 9.33378ZM262.503 12.341H264.382C264.1 9.6627 262.08 7.68921 259.12 7.68921C255.619 7.68921 253.317 10.25 253.317 14.0091C253.317 17.7681 255.619 20.3289 259.12 20.3289C262.08 20.3289 264.218 18.3084 264.382 15.5832H262.503C262.409 17.0163 261.539 18.6843 259.12 18.6843C256.277 18.6843 255.196 16.2645 255.196 14.0091C255.196 11.7537 256.277 9.33378 259.12 9.33378C261.516 9.33378 262.409 11.0253 262.503 12.341ZM271.396 9.6627V8.01812H269.047V4.02417H267.168V8.01812H265.406V9.6627H267.168V17.0633C267.168 19.5066 268.389 20.141 269.987 20.141C270.48 20.141 270.974 20.094 271.396 20V18.3554C269.799 18.4729 269.047 18.238 269.047 16.8753V9.6627H271.396ZM274.537 5.69223C275.077 5.69223 275.711 5.29284 275.711 4.56453C275.711 3.83622 275.077 3.43682 274.537 3.43682C274.02 3.43682 273.362 3.83622 273.362 4.56453C273.362 5.29284 274.02 5.69223 274.537 5.69223ZM273.597 8.01812V20H275.476V8.01812H273.597ZM283.487 20.3289C279.822 20.3289 277.614 17.7446 277.614 14.0091C277.614 10.2735 279.822 7.68921 283.487 7.68921C287.129 7.68921 289.337 10.2735 289.337 14.0091C289.337 17.7446 287.129 20.3289 283.487 20.3289ZM283.487 18.6843C286.165 18.6843 287.457 16.5699 287.457 14.0091C287.457 11.4482 286.165 9.33378 283.487 9.33378C280.785 9.33378 279.493 11.4482 279.493 14.0091C279.493 16.5699 280.785 18.6843 283.487 18.6843ZM297.108 7.68921C295.064 7.68921 293.796 8.60547 293.161 9.45125H293.114V8.01812H291.235V20H293.114V12.5289C293.114 10.6729 294.524 9.33378 296.638 9.33378C298.518 9.33378 299.246 10.5555 299.246 12.1061V20H301.126V11.6362C301.126 8.8874 299.293 7.68921 297.108 7.68921Z" fill="white"/>
<path d="M59.2607 34.1311V30.7904H64.9485V29.6385H57.9648V39.9341H59.2607V35.2831H63.8541V34.1311H59.2607ZM70.4775 32.5904V37.1694C70.4775 38.307 69.6135 39.1277 68.3175 39.1277C67.1656 39.1277 66.7192 38.379 66.7192 37.4286V32.5904H65.5672V37.7166C65.5672 39.4013 66.6904 40.1357 68.0295 40.1357C69.2823 40.1357 70.0599 39.5741 70.4487 39.0557H70.4775V39.9341H71.6294V32.5904H70.4775ZM73.2612 29.6385V39.9341H74.4131V29.6385H73.2612ZM75.947 29.6385V39.9341H77.099V29.6385H75.947ZM84.9508 32.5904H83.6549L81.5382 38.5806H81.5094L79.263 32.5904H77.9671L80.7462 39.3293C81.0342 40.0493 80.7318 40.6685 80.4294 40.9997C80.0406 41.4173 79.5942 41.4605 78.9607 41.4029H78.7879V42.2668C78.9751 42.3244 79.3062 42.4108 79.767 42.4108C81.1206 42.4108 81.495 41.3309 81.8117 40.5389L84.9508 32.5904ZM89.6804 32.9648C89.6804 31.9856 90.098 30.9344 92.0419 30.9344C93.3954 30.9344 93.9426 31.7264 93.9426 32.5328C93.9426 33.6847 93.1651 34.1599 92.1427 34.1599H91.1347V35.3119H92.2003C93.1651 35.3119 94.3026 35.5855 94.3026 37.1406C94.3026 38.3358 93.6834 38.9837 91.9699 38.9837C90.0836 38.9837 89.4212 38.0046 89.4212 36.5646H88.1252C88.1252 38.811 89.5364 40.1357 92.0707 40.1357C94.2018 40.1357 95.5986 39.0989 95.5986 37.1406C95.5986 35.9743 95.1234 35.0671 93.7122 34.6783V34.6495C94.7202 34.2463 95.2386 33.5839 95.2386 32.5328C95.2386 30.776 93.741 29.7825 92.0419 29.7825C89.5796 29.7825 88.3844 31.136 88.3844 32.9648H89.6804ZM97.029 39.9341H100.758C103.595 39.9341 105.337 38.1054 105.337 34.7935C105.337 31.4816 103.595 29.6385 100.758 29.6385H97.029V39.9341ZM98.3249 30.7904H100.758C103.379 30.7904 104.041 32.7776 104.041 34.7935C104.041 36.8094 103.379 38.7822 100.758 38.7822H98.3249V30.7904ZM117.358 39.9341L115.832 38.0478C116.379 37.1262 116.681 36.0463 116.811 35.0671H115.659C115.558 35.7871 115.356 36.4926 115.068 37.1118L112.966 34.5199C114.305 33.7135 115.083 32.9792 115.083 31.8128C115.083 30.6465 114.219 29.4225 112.664 29.4369C111.008 29.4513 110.245 30.6465 110.245 31.8128C110.245 32.7488 110.734 33.4831 111.44 34.3615C110.389 35.0239 109.352 35.9023 109.352 37.3998C109.352 38.9693 110.461 40.1357 112.433 40.1357C113.6 40.1357 114.492 39.6605 115.169 38.9261L115.99 39.9341H117.358ZM112.664 30.5889C113.47 30.5889 113.931 31.1936 113.931 31.8992C113.931 32.7776 113.326 33.2384 112.376 33.7999C111.829 33.1232 111.397 32.5184 111.397 31.8992C111.397 31.1936 111.857 30.5889 112.664 30.5889ZM112.433 38.9837C111.166 38.9837 110.504 38.2206 110.504 37.3998C110.504 36.4206 111.094 35.7007 112.016 35.0815L114.449 38.0478C113.945 38.6238 113.283 38.9837 112.433 38.9837ZM121.089 39.9341H122.385V31.4672H122.414L125.524 39.9341H126.676L129.786 31.4672H129.815V39.9341H131.111V29.6385H129.34L126.114 38.1918H126.086L122.86 29.6385H121.089V39.9341ZM136.134 39.1277C134.536 39.1277 133.744 37.8894 133.744 36.5646H139.547C139.547 33.9583 138.424 32.3888 136.12 32.3888C133.974 32.3888 132.592 33.8143 132.592 36.2622C132.592 38.5662 133.945 40.1357 136.177 40.1357C138.006 40.1357 139.057 39.0413 139.432 37.6734H138.28C138.15 38.1774 137.603 39.1277 136.134 39.1277ZM136.12 33.3968C137.502 33.3968 138.395 34.3759 138.395 35.5567H133.744C133.744 34.3759 134.737 33.3968 136.12 33.3968ZM143.743 33.5983V32.5904H142.303V30.1425H141.152V32.5904H140.072V33.5983H141.152V38.1342C141.152 39.6317 141.9 40.0205 142.879 40.0205C143.182 40.0205 143.484 39.9917 143.743 39.9341V38.9261C142.764 38.9981 142.303 38.8542 142.303 38.019V33.5983H143.743ZM149.441 34.4623C149.441 35.1967 148.879 35.3551 147.641 35.5855C145.74 35.9455 144.502 36.3774 144.502 38.0478C144.502 39.2861 145.438 40.1357 146.921 40.1357C148.13 40.1357 148.951 39.7037 149.412 39.0125H149.441C149.642 39.8189 150.06 40.0061 150.751 40.0061C150.967 40.0061 151.126 39.9917 151.428 39.8909V39.0845C150.694 39.1709 150.593 38.8542 150.593 38.2782V34.7071C150.593 32.936 149.34 32.3888 147.943 32.3888C145.812 32.3888 144.934 33.4544 144.862 34.8655H146.014C146.086 33.7999 146.546 33.3968 147.943 33.3968C149.124 33.3968 149.441 33.8863 149.441 34.4623ZM147.036 39.1277C146.086 39.1277 145.654 38.7102 145.654 37.9902C145.654 37.1118 146.316 36.7518 147.742 36.4494C148.519 36.291 149.225 36.0895 149.441 35.8735V37.0974C149.441 38.5086 148.404 39.1277 147.036 39.1277ZM151.385 32.5904L154.02 39.9341H155.33L157.965 32.5904H156.713L154.682 38.7822H154.668L152.637 32.5904H151.385ZM161.769 39.1277C160.171 39.1277 159.379 37.8894 159.379 36.5646H165.182C165.182 33.9583 164.059 32.3888 161.755 32.3888C159.609 32.3888 158.227 33.8143 158.227 36.2622C158.227 38.5662 159.58 40.1357 161.812 40.1357C163.641 40.1357 164.692 39.0413 165.067 37.6734H163.915C163.785 38.1774 163.238 39.1277 161.769 39.1277ZM161.755 33.3968C163.137 33.3968 164.03 34.3759 164.03 35.5567H159.379C159.379 34.3759 160.372 33.3968 161.755 33.3968ZM169.533 32.3888C168.482 32.3888 167.892 33.08 167.503 34.0447H167.474V32.5904H166.322V39.9341H167.474V36.0175C167.474 34.4479 168.583 33.3248 170.181 33.5839H170.21V32.432C170.009 32.4032 169.807 32.3888 169.533 32.3888ZM174.239 35.5711C173.216 35.3263 172.223 35.2543 172.223 34.3903C172.223 33.8143 172.784 33.3968 173.821 33.3968C175.204 33.3968 175.477 34.1311 175.592 34.6927H176.744C176.629 33.4256 175.65 32.3888 173.821 32.3888C172.093 32.3888 171.071 33.3248 171.071 34.4767C171.071 36.2046 172.741 36.3342 173.864 36.6078C174.916 36.867 175.88 36.9246 175.88 37.9902C175.88 38.4798 175.391 39.1277 174.138 39.1277C172.295 39.1277 172.007 38.307 171.935 37.4862H170.783C170.855 39.0701 171.892 40.1357 174.138 40.1357C175.808 40.1357 177.032 39.2573 177.032 37.9182C177.032 36.1039 175.549 35.8879 174.239 35.5711ZM181.414 39.1277C179.815 39.1277 179.023 37.8894 179.023 36.5646H184.826C184.826 33.9583 183.703 32.3888 181.399 32.3888C179.254 32.3888 177.872 33.8143 177.872 36.2622C177.872 38.5662 179.225 40.1357 181.457 40.1357C183.286 40.1357 184.337 39.0413 184.711 37.6734H183.559C183.43 38.1774 182.883 39.1277 181.414 39.1277ZM181.399 33.3968C182.782 33.3968 183.675 34.3759 183.675 35.5567H179.023C179.023 34.3759 180.017 33.3968 181.399 33.3968ZM189.022 39.9341H190.318V35.7727H193.27C195.877 35.7727 194.897 39.5021 195.344 39.9341H196.741V39.8477C196.208 39.6749 197.043 35.6287 194.753 35.1823V35.1535C195.891 34.8655 196.597 34.0447 196.597 32.5616C196.597 30.7329 195.229 29.6385 193.198 29.6385H189.022V39.9341ZM190.318 30.7904H192.896C193.961 30.7904 195.301 30.92 195.301 32.7056C195.301 34.4911 193.961 34.6207 192.896 34.6207H190.318V30.7904ZM201.016 39.1277C199.418 39.1277 198.626 37.8894 198.626 36.5646H204.429C204.429 33.9583 203.306 32.3888 201.002 32.3888C198.856 32.3888 197.474 33.8143 197.474 36.2622C197.474 38.5662 198.827 40.1357 201.059 40.1357C202.888 40.1357 203.939 39.0413 204.314 37.6734H203.162C203.032 38.1774 202.485 39.1277 201.016 39.1277ZM201.002 33.3968C202.384 33.3968 203.277 34.3759 203.277 35.5567H198.626C198.626 34.3759 199.619 33.3968 201.002 33.3968ZM210.062 34.4623C210.062 35.1967 209.5 35.3551 208.262 35.5855C206.361 35.9455 205.123 36.3774 205.123 38.0478C205.123 39.2861 206.059 40.1357 207.542 40.1357C208.752 40.1357 209.572 39.7037 210.033 39.0125H210.062C210.264 39.8189 210.681 40.0061 211.372 40.0061C211.588 40.0061 211.747 39.9917 212.049 39.8909V39.0845C211.315 39.1709 211.214 38.8542 211.214 38.2782V34.7071C211.214 32.936 209.961 32.3888 208.564 32.3888C206.433 32.3888 205.555 33.4544 205.483 34.8655H206.635C206.707 33.7999 207.168 33.3968 208.564 33.3968C209.745 33.3968 210.062 33.8863 210.062 34.4623ZM207.657 39.1277C206.707 39.1277 206.275 38.7102 206.275 37.9902C206.275 37.1118 206.937 36.7518 208.363 36.4494C209.14 36.291 209.846 36.0895 210.062 35.8735V37.0974C210.062 38.5086 209.025 39.1277 207.657 39.1277ZM218.137 29.6385V33.5407H218.108C217.676 32.9072 216.985 32.3888 215.804 32.3888C213.961 32.3888 212.492 33.8431 212.492 36.2622C212.492 38.6814 213.961 40.1357 215.804 40.1357C216.985 40.1357 217.676 39.5885 218.108 39.0269H218.137V39.9341H219.289V29.6385H218.137ZM215.919 39.1277C214.407 39.1277 213.644 37.7022 213.644 36.2622C213.644 34.8223 214.407 33.3968 215.919 33.3968C217.287 33.3968 218.137 34.5343 218.137 36.2622C218.137 37.9902 217.287 39.1277 215.919 39.1277ZM227.089 32.5904H225.793L223.677 38.5806H223.648L221.402 32.5904H220.106L222.885 39.3293C223.173 40.0493 222.87 40.6685 222.568 40.9997C222.179 41.4173 221.733 41.4605 221.099 41.4029H220.926V42.2668C221.114 42.3244 221.445 42.4108 221.906 42.4108C223.259 42.4108 223.633 41.3309 223.95 40.5389L227.089 32.5904Z" fill="white"/>
<g clip-path="url(#clip0_3_62)">
<path d="M20.0198 139.498L26.1477 139.498L26.1477 167L0.856384 167L0.856383 139.756L6.9843 139.756L6.9843 157.604L10.6118 157.604L10.6118 140.381L16.2267 140.381L16.2267 157.604L20.04 157.604L20.0198 139.498Z" fill="white"/>
<path d="M13.9282 137.004C6.09156 137.004 -2.91165e-07 130.343 -7.6722e-07 119.452C-1.13263e-06 111.093 3.11849 104.769 8.26077 103.224L9.86445 113.432C7.94165 114.273 6.41472 116.076 6.41472 119.64C6.41472 124.561 9.29893 127.092 13.8232 127.092C18.0283 127.092 20.8761 124.481 20.8761 119.561C20.8761 114.64 18.8119 112.404 16.9255 112.113L16.8891 112.113L16.8891 120.693L11.5772 120.693L11.5772 103.295L26.1477 103.295L26.1477 110.46L21.9466 110.789C24.1481 112.038 27 115.289 27 122.133C27 131.567 21.3407 137.004 13.9282 137.004Z" fill="white"/>
<path d="M13.504 101.026C5.23519 101.026 -3.00264e-07 94.1569 -7.73589e-07 83.3285C-1.24691e-06 72.5001 5.23519 65.6683 13.504 65.6683C21.7729 65.6683 27 72.5375 27 83.3285C27 94.1194 21.7648 101.026 13.504 101.026ZM13.504 75.585C9.33528 75.585 6.58842 78.6283 6.58842 83.3035C6.58842 87.9788 9.35952 91.1095 13.504 91.1095C17.6486 91.1095 20.4116 88.0287 20.4116 83.3285C20.4116 78.6283 17.6364 75.585 13.504 75.585Z" fill="white"/>
<path d="M6.86312 47.7167L6.86312 63.9447L0.856384 63.9447L0.856383 35.4145L6.5238 35.4145L20.1288 52.0131L20.1288 34.8275L26.1517 34.8275L26.1517 64.411L20.4843 64.411L6.86716 47.7167L6.86312 47.7167Z" fill="white"/>
<path d="M20.0198 30.5311L26.1477 30.5311L26.1477 3L0.856383 3L0.856384 30.2771L6.9843 30.2771L6.9843 12.4379L10.6118 12.4379L10.6118 29.6527L16.2267 29.6527L16.2267 12.4379L20.04 12.4379L20.0198 30.5352L20.0198 30.5311Z" fill="white"/>
</g>
<defs>
<clipPath id="clip0_3_62">
<rect width="164" height="27" fill="white" transform="translate(0 167) rotate(-90)"/>
</clipPath>
</defs>
</svg>
