<?xml version="1.0" encoding="utf-8"?>
<!-- Generator: Adobe Illustrator 26.3.1, SVG Export Plug-In . SVG Version: 6.00 Build 0)  -->
<svg version="1.1" id="Layer_1" xmlns="http://www.w3.org/2000/svg" xmlns:xlink="http://www.w3.org/1999/xlink" x="0px" y="0px"
	 viewBox="0 0 463.4 74.3" style="enable-background:new 0 0 463.4 74.3;" xml:space="preserve">
<style type="text/css">
	.st0{fill:#FAFDFF;}
</style>
<g>
	<g>
		<g>
			<g>
				<path class="st0" d="M7.6,28.7c-0.1-0.3-0.2-0.5-0.2-0.5c0-0.5,0.3-0.7,0.8-0.7h4.5c0.4,0,0.7,0.2,0.9,0.6l17.9,37.4
					c0.1,0.2,0.2,0.4,0.2,0.5c0,0.5-0.3,0.7-0.8,0.7h-4c-0.4,0-0.7-0.2-0.9-0.6L7.6,28.7z M34.3,60c-0.2,0.3-0.3,0.4-0.5,0.4
					c-0.3,0-0.4-0.1-0.5-0.4L31,55.4c-0.1,0-0.1-0.1-0.1-0.2s0-0.2,0.1-0.3l12.6-26.8c0.2-0.4,0.5-0.6,0.9-0.6h4
					c0.5,0,0.8,0.2,0.8,0.7c0,0.1-0.1,0.2-0.2,0.5L34.3,60z"/>
				<path class="st0" d="M83.3,65.5c0.1,0.3,0.2,0.5,0.2,0.5c0,0.5-0.3,0.7-0.8,0.7h-4.3c-0.4,0-0.7-0.2-0.9-0.6l-4.3-9H54.9
					c-0.4,0-0.5-0.2-0.5-0.5c0-0.2,0-0.3,0.1-0.4l1.7-3.3c0.2-0.5,0.6-0.8,1.1-0.8h13.5l-9.3-20l-16.6,34c-0.2,0.4-0.5,0.6-0.9,0.6
					h-3.8c-0.5,0-0.8-0.2-0.8-0.7c0,0,0-0.2,0.2-0.5l18-36.6c0.2-0.4,0.5-0.7,0.9-1c0.4-0.3,0.8-0.4,1.2-0.4h3.6
					c0.4,0,0.8,0.1,1.2,0.4c0.4,0.3,0.7,0.6,0.9,1L83.3,65.5z"/>
				<path class="st0" d="M89.5,28.9c0-0.4,0.1-0.7,0.4-1c0.3-0.3,0.6-0.4,1-0.4h22.9c1.7,0,3.2,0.3,4.7,1c1.4,0.6,2.7,1.5,3.8,2.6
					c1.1,1.1,1.9,2.4,2.5,3.8c0.6,1.4,1,3,1,4.7s-0.3,3.2-1,4.7c-0.6,1.4-1.5,2.7-2.5,3.8c-1.1,1.1-2.3,1.9-3.8,2.5
					c-1.4,0.6-3,0.9-4.7,0.9h-12.7c-0.4,0-0.7-0.1-1-0.4c-0.3-0.3-0.4-0.6-0.4-1v-2.4c0-0.4,0.1-0.7,0.4-1c0.3-0.3,0.6-0.4,1-0.4
					h11.8c1,0,1.9-0.2,2.8-0.5c0.9-0.4,1.7-0.8,2.3-1.4c0.7-0.6,1.2-1.3,1.6-2.2s0.6-1.7,0.6-2.7c0-1-0.2-1.8-0.6-2.7
					c-0.4-0.8-0.9-1.5-1.6-2.1c-0.7-0.6-1.4-1.1-2.3-1.4c-0.9-0.4-1.8-0.5-2.8-0.5H95.4v32.6c0,0.4-0.1,0.7-0.4,1
					c-0.3,0.3-0.6,0.4-1,0.4h-3c-0.4,0-0.7-0.1-1-0.4c-0.3-0.3-0.4-0.6-0.4-1V28.9z"/>
				<path class="st0" d="M136.5,61.4h27c0.4,0,0.7,0.1,0.9,0.4c0.3,0.3,0.4,0.6,0.4,1v2.4c0,0.4-0.1,0.7-0.4,1
					c-0.3,0.3-0.6,0.4-0.9,0.4h-31.5c-0.4,0-0.7-0.1-1-0.4c-0.3-0.3-0.4-0.6-0.4-1V28.9c0-0.4,0.1-0.7,0.4-1c0.3-0.3,0.6-0.4,1-0.4
					h31.1c0.4,0,0.7,0.1,1,0.4c0.3,0.3,0.4,0.6,0.4,1v2.4c0,0.4-0.1,0.7-0.4,1c-0.3,0.3-0.6,0.4-1,0.4h-26.6V61.4z M140.7,45
					c0-0.4,0.1-0.7,0.4-1c0.3-0.3,0.6-0.4,1-0.4h19.1c0.4,0,0.7,0.1,1,0.4c0.3,0.3,0.4,0.6,0.4,1v2.4c0,0.4-0.1,0.7-0.4,1
					c-0.3,0.3-0.6,0.4-1,0.4h-19.1c-0.4,0-0.7-0.1-1-0.4c-0.3-0.3-0.4-0.6-0.4-1V45z"/>
				<path class="st0" d="M183.3,28.9c0-0.4,0.1-0.7,0.4-1c0.3-0.3,0.6-0.4,1-0.4h2.3c0.6,0,1.1,0.2,1.5,0.6l16.5,19.4L221,28.1
					c0.4-0.4,0.7-0.6,1.2-0.6h4.1c0.4,0,0.5,0.2,0.5,0.5c0,0.2-0.1,0.4-0.4,0.8l-20.2,24.2c-0.1,0.1-0.2,0.2-0.3,0.3
					c-0.3,0.2-0.6,0.3-0.9,0.3c-0.4,0-0.7-0.1-1-0.3c-0.2-0.1-0.3-0.2-0.3-0.3l-15.4-17.8v30.2c0,0.4-0.1,0.7-0.4,1
					c-0.3,0.3-0.6,0.4-1,0.4h-2.2c-0.4,0-0.7-0.1-1-0.4c-0.3-0.3-0.4-0.6-0.4-1V28.9z M221.2,41.2c0-0.4,0.2-0.8,0.5-1.2l3.7-4.3
					c0.4-0.5,0.7-0.7,0.9-0.7c0.2,0,0.3,0.2,0.3,0.5v29.9c0,0.4-0.1,0.7-0.4,1c-0.3,0.3-0.6,0.4-1,0.4h-2.6c-0.4,0-0.7-0.1-1-0.4
					c-0.3-0.3-0.4-0.6-0.4-1V41.2z"/>
				<path class="st0" d="M233.9,32.6c0-0.6,0.2-1.2,0.5-1.8c0.3-0.6,0.7-1.2,1.2-1.6c0.5-0.5,1-0.9,1.6-1.2c0.6-0.3,1.2-0.5,1.8-0.5
					h30.6c0.6,0,1.2,0.2,1.8,0.5c0.6,0.3,1.2,0.7,1.6,1.2c0.5,0.5,0.9,1,1.2,1.6c0.3,0.6,0.5,1.2,0.5,1.8v28.9
					c0,0.6-0.2,1.2-0.5,1.8c-0.3,0.6-0.7,1.2-1.2,1.6c-0.5,0.5-1,0.9-1.6,1.2c-0.6,0.3-1.2,0.5-1.8,0.5h-30.6
					c-0.6,0-1.2-0.2-1.8-0.5c-0.6-0.3-1.2-0.7-1.6-1.2c-0.5-0.5-0.9-1-1.2-1.6c-0.3-0.6-0.5-1.2-0.5-1.8V32.6z M239.8,61.4h29V32.7
					h-29V61.4z"/>
				<path class="st0" d="M315.7,28.9c0-0.4,0.1-0.7,0.4-1c0.3-0.3,0.6-0.4,1-0.4h2.5c0.4,0,0.8,0.1,1,0.4c0.3,0.3,0.4,0.6,0.4,1
					v36.4c0,0.4-0.1,0.7-0.4,1c-0.3,0.3-0.6,0.4-1,0.4h-2.8c-0.4,0-0.8-0.1-1.3-0.3c-0.5-0.2-0.9-0.5-1.2-0.9l-32-36.8
					c-0.3-0.3-0.4-0.5-0.4-0.8c0-0.3,0.2-0.4,0.5-0.4h4.6c0.4,0,0.7,0.2,1.1,0.6l27.3,31.5V28.9z M287.5,65.3c0,0.4-0.1,0.7-0.4,1
					c-0.3,0.3-0.6,0.4-1,0.4h-2.6c-0.4,0-0.7-0.1-1-0.4c-0.3-0.3-0.4-0.6-0.4-1V35.4c0-0.3,0.1-0.5,0.3-0.5c0.2,0,0.5,0.2,0.9,0.7
					l3.6,4.2c0.4,0.5,0.5,0.9,0.5,1.2V65.3z"/>
				<path class="st0" d="M328.8,28.9c0-0.4,0.1-0.7,0.4-1c0.3-0.3,0.6-0.4,1-0.4h3.1c0.4,0,0.7,0.1,1,0.4c0.3,0.3,0.4,0.6,0.4,1
					v13.8l31.8,22.9c0.6,0.4,0.8,0.7,0.8,0.9c0,0.2-0.1,0.2-0.4,0.2h-6.7c-0.6,0-1.2-0.3-1.8-0.8l-23.8-17.1v16.5
					c0,0.4-0.1,0.7-0.4,1c-0.3,0.3-0.6,0.4-1,0.4h-3.1c-0.4,0-0.7-0.1-1-0.4c-0.3-0.3-0.4-0.6-0.4-1V28.9z M339.5,41.5
					c-0.2-0.2-0.2-0.3-0.2-0.5c0-0.2,0-0.4,0.2-0.5l17.1-12.5c0.3-0.3,0.6-0.4,0.8-0.5c0.3-0.1,0.6-0.1,1.1-0.1h6.2
					c0.2,0,0.3,0.1,0.3,0.2c0,0.2-0.2,0.4-0.5,0.6l-21,15.4c-0.2,0.1-0.4,0.2-0.5,0.2c-0.2,0-0.4,0-0.5-0.2L339.5,41.5z"/>
				<path class="st0" d="M376.9,61.4h27c0.4,0,0.7,0.1,0.9,0.4c0.3,0.3,0.4,0.6,0.4,1v2.4c0,0.4-0.1,0.7-0.4,1
					c-0.3,0.3-0.6,0.4-0.9,0.4h-31.5c-0.4,0-0.7-0.1-1-0.4c-0.3-0.3-0.4-0.6-0.4-1V28.9c0-0.4,0.1-0.7,0.4-1c0.3-0.3,0.6-0.4,1-0.4
					h31.1c0.4,0,0.7,0.1,1,0.4c0.3,0.3,0.4,0.6,0.4,1v2.4c0,0.4-0.1,0.7-0.4,1c-0.3,0.3-0.6,0.4-1,0.4h-26.6V61.4z M381.1,45
					c0-0.4,0.1-0.7,0.4-1c0.3-0.3,0.6-0.4,1-0.4h19.1c0.4,0,0.7,0.1,1,0.4c0.3,0.3,0.4,0.6,0.4,1v2.4c0,0.4-0.1,0.7-0.4,1
					c-0.3,0.3-0.6,0.4-1,0.4h-19.1c-0.4,0-0.7-0.1-1-0.4c-0.3-0.3-0.4-0.6-0.4-1V45z"/>
				<path class="st0" d="M408.9,28.7c-0.2-0.2-0.3-0.5-0.3-0.8c0-0.3,0.2-0.5,0.6-0.5h5.2c0.4,0,0.7,0.2,1.1,0.6l10.6,13.5
					c0.1,0.1,0.2,0.2,0.2,0.4c0,0.2-0.1,0.3-0.2,0.4l-2.7,3.3c-0.2,0.2-0.3,0.2-0.5,0.2c-0.2,0-0.3-0.1-0.5-0.2L408.9,28.7z
					 M431.7,49.4v15.9c0,0.9-0.5,1.4-1.5,1.4h-3c-0.9,0-1.4-0.5-1.4-1.4V50c0-0.4,0.1-0.7,0.2-1s0.3-0.6,0.5-0.8L442,28.1
					c0.3-0.4,0.7-0.6,1.1-0.6h5.1c0.4,0,0.6,0.2,0.6,0.5c0,0.1-0.1,0.4-0.4,0.8L431.7,49.4z"/>
			</g>
		</g>
	</g>
	<g>
		<path class="st0" d="M421.1,8.7c0-0.2,0.1-0.3,0.2-0.4c0.1-0.1,0.2-0.2,0.4-0.2h1c0.2,0,0.3,0.1,0.4,0.2c0.1,0.1,0.2,0.2,0.2,0.4
			v14.4c0,0.2-0.1,0.3-0.2,0.4c-0.1,0.1-0.2,0.2-0.4,0.2h-1.1c-0.1,0-0.3,0-0.5-0.1s-0.3-0.2-0.5-0.3L408,8.6
			c-0.1-0.1-0.2-0.2-0.2-0.3c0-0.1,0.1-0.2,0.2-0.2h1.8c0.1,0,0.3,0.1,0.5,0.2l10.8,12.5V8.7z M410,23.1c0,0.2-0.1,0.3-0.2,0.4
			c-0.1,0.1-0.2,0.2-0.4,0.2h-1c-0.2,0-0.3,0-0.4-0.2c-0.1-0.1-0.2-0.2-0.2-0.4V11.3c0-0.1,0-0.2,0.1-0.2s0.2,0.1,0.4,0.3l1.4,1.7
			c0.1,0.2,0.2,0.3,0.2,0.5V23.1z"/>
		<path class="st0" d="M426.3,8.7c0-0.2,0.1-0.3,0.2-0.4c0.1-0.1,0.2-0.2,0.4-0.2H439c0.2,0,0.3,0.1,0.4,0.2
			c0.1,0.1,0.2,0.2,0.2,0.4v0.9c0,0.2,0,0.3-0.2,0.4c-0.1,0.1-0.2,0.2-0.4,0.2h-10.3v12.9c0,0.1-0.1,0.3-0.2,0.4
			c-0.1,0.1-0.2,0.2-0.4,0.2h-1.3c-0.1,0-0.3-0.1-0.4-0.2c-0.1-0.1-0.2-0.2-0.2-0.4V8.7z M430.3,15.8c0-0.2,0.1-0.3,0.2-0.4
			c0.1-0.1,0.2-0.1,0.4-0.1h7.2c0.2,0,0.3,0,0.4,0.1c0.1,0.1,0.2,0.2,0.2,0.4v0.9c0,0.2-0.1,0.3-0.2,0.4c-0.1,0.1-0.2,0.2-0.4,0.2
			h-7.2c-0.2,0-0.3-0.1-0.4-0.2c-0.1-0.1-0.2-0.2-0.2-0.4V15.8z"/>
		<path class="st0" d="M441.4,8.7c0-0.1,0-0.3,0.2-0.4c0.1-0.1,0.2-0.2,0.4-0.2h14c0.2,0,0.3,0.1,0.4,0.2c0.1,0.1,0.2,0.2,0.2,0.4v1
			c0,0.4-0.2,0.6-0.5,0.6h-14c-0.2,0-0.3-0.1-0.4-0.2c-0.1-0.1-0.2-0.2-0.2-0.4V8.7z M447.7,12.4c0-0.2,0.1-0.3,0.2-0.4
			c0.1-0.1,0.2-0.1,0.4-0.1h1.2c0.2,0,0.3,0,0.4,0.1c0.1,0.1,0.2,0.2,0.2,0.4v10.7c0,0.2,0,0.3-0.2,0.4c-0.1,0.1-0.2,0.2-0.4,0.2
			h-1.2c-0.2,0-0.3,0-0.4-0.2c-0.1-0.1-0.2-0.2-0.2-0.4V12.4z"/>
	</g>
</g>
<g>
</g>
<g>
</g>
<g>
</g>
<g>
</g>
<g>
</g>
<g>
</g>
</svg>
